<svg width="167px" height="151px" id="acd74e2c-4d6c-4c8b-a7fa-7409588c8f48" data-name="38f4f86a-74a8-40fb-8a68-9f23d8bc3bf1" xmlns="http://www.w3.org/2000/svg" viewBox="0 0 376.62 415.27"><title>CB_logo</title><path d="M285.31,387.44c-1.84-1.14-3.91-1.9-5.8-3a46.06,46.06,0,0,1-6.12-3.82c-3.25-2.58-4.07-6.26-2.15-8.88,1.66-2.27,5.15-4,9.56-.49a27.68,27.68,0,0,0,4.1,2.93c1.53.81,3.64-.12,5-1.89,1.11-1.4,1-3.09-.53-4.54-3.43-3.29-7.33-5.52-12.32-5.1-1.45.11-2.89.16-4.33.33-5.12.59-8.32,3.4-9.81,8.33a13.09,13.09,0,0,0,4.72,14.83c2.69,2,5.83,3.4,8.66,5.23a38.22,38.22,0,0,1,7,5.18c3.11,3.24,2.21,7.56-1.7,9.72s-7.44,1.55-10.94-.73a34.69,34.69,0,0,0-4.16-2.8,3.18,3.18,0,0,0-3.85,1.2,2.88,2.88,0,0,0,.27,4c7.33,7.48,16.78,9.09,25.45,2.82a10.21,10.21,0,0,0,3.93-5.91C294.21,397.3,292,391.53,285.31,387.44Z" transform="translate(0 0.08)" fill="#feb904"/><path d="M250,407.94c-2.9-.13-5.81,0-8.69-.25-5.22-.51-7.36-2.65-7.43-7s2.1-6.6,7.25-7.08c1.93-.18,3.87-.16,5.8-.34,3.36-.32,3.73-1.09,2.81-5.51a4.15,4.15,0,0,0-1.24-.66,41.48,41.48,0,0,0-5-.51c-8.94-.14-9.7-2.66-9.35-10.8.19-4.22,1.49-5.64,5.59-6.08,1.67-.18,3.38.08,5.07,0a37.38,37.38,0,0,0,5.74-.65c2.84-.62,3.07-1.31,2.29-6.09-4.31-.17-8.16-.4-12-.46a99.06,99.06,0,0,0-10.15.16c-3.55.3-4.57,1.55-4.8,5.11-.11,1.69-.06,3.39-.06,5.08v18.88c0,6.29,0,12.59.12,18.88.06,3.28,1.1,4.34,4.32,4.52,2.17.12,4.36,0,6.53,0h13.07a3.4,3.4,0,0,0,3.42-2.18C254.38,410.27,253,408,250,407.94Z" transform="translate(0 0.08)" fill="#feb904"/><path d="M218.31,389.52c0-6.75,0-13.51,0-20.26a14.25,14.25,0,0,0-.89-4.89,2.86,2.86,0,0,0-3.57-1.74,4.55,4.55,0,0,0-2.59,2.11,11,11,0,0,0-.57,4.21c0,3.37.14,6.75.11,10.12-.1,8.68-.37,17.35-.36,26a36.13,36.13,0,0,0,1.1,7.83c.36,1.59,1.9,2.08,3.43,2.1a2.83,2.83,0,0,0,3.12-2.4,31,31,0,0,0,.36-5V389.51Z" transform="translate(0 0.08)" fill="#feb904"/><path d="M197.36,407.59c-2.65-.16-5.33,0-8-.25a6,6,0,0,1-5.72-5.58,37.55,37.55,0,0,1-.16-5.06V370.62c0-1.69,0-3.39-.11-5.07-.18-2.14-1.53-3.09-4.07-3.08-2.08,0-3,.86-3.3,3a27.11,27.11,0,0,0-.14,2.89c-.13,13.27-.28,26.55-.35,39.83a45.7,45.7,0,0,0,.73,5.63,42.56,42.56,0,0,0,4.82.69c4.1.08,8.21,0,12.31,0a29.26,29.26,0,0,0,4.32-.31,3.23,3.23,0,0,0,2.93-3.5h0C200.58,408.9,199.45,407.72,197.36,407.59Z" transform="translate(0 0.08)" fill="#feb904"/><path d="M166.13,407.65c-2.16-.18-4.34-.07-6.51-.17-5.69-.27-7.65-2.24-7.93-8-.09-1.93,0-3.86,0-5.79,0-8.45,0-16.9-.08-25.34a51.16,51.16,0,0,0-.55-5.19,37.38,37.38,0,0,0-4.41-.54c-.62,0-1.24.58-1.75.84-1.65,9.24-1.74,42.73-.1,50.16a19.3,19.3,0,0,0,3.94.9c4.58.12,9.17.08,13.75,0a11,11,0,0,0,4.25-.61,4.41,4.41,0,0,0,2-2.65,2.83,2.83,0,0,0-2.61-3.61Z" transform="translate(0 0.08)" fill="#feb904"/><path d="M135.87,389V369.46a13.57,13.57,0,0,0-.76-4.93,4.41,4.41,0,0,0-2.76-1.92,2.9,2.9,0,0,0-3.47,1.92,12.71,12.71,0,0,0-.63,4.22c-.12,5.78-.17,11.56-.19,17.34,0,6.5-.07,13,.07,19.51a35.55,35.55,0,0,0,1,7.11c.38,1.68,2.13,2.47,4,2.27a2.84,2.84,0,0,0,2.64-2.89c.2-2.15.26-4.33.28-6.49V389Z" transform="translate(0 0.08)" fill="#feb904"/><path d="M110.42,388.19c.92-1.46,1.62-2.7,2.45-3.84,6.69-9.17-.94-20.7-10.48-21.58-4.55-.42-9.16-.32-13.74-.29-2.64,0-4.08,1.17-4.53,3.79a43.19,43.19,0,0,0-.44,7.19q0,18.39.06,36.78c0,2.62,1,4.23,3.75,4.35,5.53.25,11.08.22,16.62.08a14.57,14.57,0,0,0,4.86-1.34c8.75-3.54,11.31-13.47,5.37-20.8C113.14,391,111.81,389.72,110.42,388.19ZM91.88,376.57c.14-4.57,2.4-7.12,6.25-7,5.68.1,8.79,2.6,8.89,7.16.1,4.75-3.57,7.85-9.15,7.74-4.35-.09-6.15-2.45-6-7.84Zm17.51,23c-.21,3.14-1.4,5.58-4.52,6.72a19.84,19.84,0,0,1-3.44,1c-5,.83-10.26-1.2-9.54-8.3.07-6,2.56-8.3,8.57-7.69a15.43,15.43,0,0,1,5.43,1.64,6.42,6.42,0,0,1,3.49,6.63Z" transform="translate(0 0.08)" fill="#feb904"/><path d="M187.92,76.72c-4.6,2.6-6.59,6.84-6.69,12a12.33,12.33,0,0,0,.13,2.2c.45,3.44,2.53,5.24,5.93,4.75a9.84,9.84,0,0,0,4.58-1.82,13.83,13.83,0,0,0,5.27-12.11C196.85,76.48,192.53,74.11,187.92,76.72Z" transform="translate(0 0.08)" fill="#feb904"/><path d="M370.83,240.76c-27.89-5.92-55.8-5-83.94-1.85-1.08-2.28.37-3.89,1.06-5.48,8-18.43,16.11-36.76,23.93-55.25,4-9.35,7.36-18.94,10.91-28.46a31.12,31.12,0,0,0,1.82-7c.68-5.55-5.27-10.22-10.55-8.26a5.69,5.69,0,0,0-2.71,3.1c-2,5-3.64,10-5.46,15-6,16.42-5.94,16.44-16.75,30.17-6.89,8.76-14,17.37-22.08,25a154.3,154.3,0,0,1-12.36,10.06c-1,.77-2.55.85-4,1.28-1.42-3.59-.59-6.65.47-9.57,1.65-4.54,3.3-9.11,5.39-13.46,5.64-11.78,11.67-23.37,17.22-35.19a133.21,133.21,0,0,0,5.76-15.61c3-9.26-3-13.59-10.62-13.62a9.5,9.5,0,0,0-2.15.52,5.78,5.78,0,0,0-.85,1.94c-.11,5.92-1.9,11.44-4.14,16.79-4.57,10.92-9.44,21.73-14,32.66q-4.75,11.36-9,22.94A29.13,29.13,0,0,0,237,220a17.78,17.78,0,0,0,1.5,5.53c2,4.13,5.9,6,10.27,4.47a44.63,44.63,0,0,0,9.75-4.7c8.18-5.3,15-12.2,21.58-19.32,2.11-2.27,4.18-4.57,6.84-7.48-1.29,6.8-12.45,32.77-18.5,43.53-5.44,1.4-11.06,2.81-16.65,4.31-4,1.07-8.14,1.77-11.79,3.52-9,4.32-22.47-1.28-27.67-11.34a43.65,43.65,0,0,1-4.68-17.36,63,63,0,0,1,2.37-20c5.44-20.91,13.86-40.7,22.69-60.34,2.18-4.85,4.44-9.68,6.72-14.49A18.05,18.05,0,0,1,241,124c6.89-.69,13.6-1.33,20.3-2,7.44-.78,14.87-1.82,22.33-2.38,16.87-1.25,33.72-2.94,50.69-1,8.39,1,16.86,1.17,25.14,3.07a5.4,5.4,0,0,0,3.54-.19,6.15,6.15,0,0,0,2.68-3.1c.5-1.51-.71-2.77-2.08-3.4a18.53,18.53,0,0,0-4.14-1.27c-8.51-1.69-17-3.92-25.57-4.81-12.48-1.3-25-2.37-37.64-1.51-11.57.8-23.12,1.71-34.7,2.39-4.56.27-9.15,0-14,0,.75-4.23,2.89-7.77,4.63-11.42a26.08,26.08,0,0,0,2.34-14.84,26.38,26.38,0,0,0-1.93-7,3.6,3.6,0,0,0-6.45-.28,36.15,36.15,0,0,0-2.25,5.31c-3.92,9.87-7.91,19.71-12.72,29.42-3.63.91-7.39.4-11,.35-8.94-.12-18,.83-26.79-1.09a95.41,95.41,0,0,1-25.17-9,32.27,32.27,0,0,1-10-8.25c-3.19-4-5.69-8.36-4.6-14.28C166,75.69,175.51,68.09,183,58c8.46-1.33,16,1.23,23.46,4,1.81.68,3.51,1.63,5.3,2.37a3.17,3.17,0,0,0,3.92-.93c1.22-1.49,1.27-4.31-.09-5.33a24,24,0,0,0-5-2.87A80.61,80.61,0,0,0,191.72,50c-.91-.15-1.81-.39-3.14-.68.52-1.84,1-3.39,1.4-5,1-4.21,2.57-8.39,2.94-12.66,1.5-17.07-8.08-30.09-27.21-31.56-14.29-1.09-27.9,1.79-40.94,7.6a151.82,151.82,0,0,0-31,18.78c-17,13.12-31.42,28.72-44.36,45.74a287.93,287.93,0,0,0-33.46,56A190.47,190.47,0,0,0,1.62,173c-2.23,12.47-2.35,25,.87,37.39C7.19,228.52,20,241,41.86,241.9c21.1.9,40.12-5.6,56.71-18.64,17.79-14,30.32-31.77,37-53.48a69.21,69.21,0,0,0,3.25-21.43,32.77,32.77,0,0,0-3-13.36c-3.43-7.44-9.36-11.49-17.55-12.15A36.72,36.72,0,0,0,98,127c-18.13,9.54-30.82,23.92-37.41,43.4a53.91,53.91,0,0,0-2.27,11.37,11.33,11.33,0,0,0,1.19,5.52,3.52,3.52,0,0,0,4.26,2A4.3,4.3,0,0,0,66.18,187,105.47,105.47,0,0,1,75,168.69c6-10,12.73-19.44,21.2-27.53,4.23-4,8.86-7.49,14.5-9.39,8-2.69,14.46.33,17.37,8.24,2.25,6.11,1.89,12.43.78,18.65-3,16.83-10.54,31.59-21.3,44.74C98.84,214,88.47,222.61,75.73,228.07a65.84,65.84,0,0,1-29,5.68A31.61,31.61,0,0,1,29.06,228c-6.21-4.5-9.43-11-11.45-18-2.7-9.47-2.55-19.23-1.16-28.81,2.28-15.63,7.64-30.42,14.18-44.74A314,314,0,0,1,89,50c10.68-11.25,22.19-21.63,35.56-29.72,9-5.43,18.33-9.85,28.75-11.71a40.34,40.34,0,0,1,15.85.22c12.79,2.78,17.83,12.73,16.13,24.4a35.18,35.18,0,0,1-6.44,16.34c-13.25,1.67-24.15,7.54-30.86,19.9-3.83-.34-5.31-2.74-6-5.64a24.37,24.37,0,0,1,3.59-20.07c1-1.39,2.38-2.42,3.31-3.82a3.43,3.43,0,0,0-.25-4.17c-1.08-1.33-2.48-1.27-3.92-.54-10.14,5.15-17.21,17.15-16.51,27.81.48,7.35,4.32,12.12,11,14.83,1.78.73,3.67,1.18,5.68,1.81a26.78,26.78,0,0,1,.35,2.82c.23,10.36,4.9,18.53,12.46,25.25,8.38,7.45,18.48,11.42,29.2,13.83a114.33,114.33,0,0,0,28.76,3.09,24.75,24.75,0,0,1,8.43.74c-.89,2.36-1.52,4.37-2.38,6.27-4.22,9.25-8.6,18.42-12.73,27.71-2.65,6-5,12.06-7.38,18.16a24,24,0,0,1-4.74,8.07c-7.12,7.59-14.15,15.27-21.39,22.74a64.44,64.44,0,0,1-16.11,12.38,41.57,41.57,0,0,1-8.78,3.23,3.27,3.27,0,0,1-4-3.19,26.06,26.06,0,0,1,.77-6.41c2.25-9,6.07-17.35,9.88-25.72,3.71-8.15,7.71-16.16,11.43-24.31,2.2-4.84,4.15-9.8,6.09-14.75.7-1.78,1-3.73,1.57-5.56,1.89-5.69-1.56-10.73-8.82-10.83a15.41,15.41,0,0,0-2.52.44c-1,2.75-2,5.71-3.2,8.55q-6,14-12.16,27.92c-5.21,11.72-10.48,23.4-14.18,35.72a45.52,45.52,0,0,0-1.8,12.87c-.08,9.89,8.62,15.28,17.18,14A34.58,34.58,0,0,0,163,228.46a80,80,0,0,0,16.08-12.35c4-3.89,7.73-8,11.59-12,.61-.63,1.26-1.22,2.83-2.74-.13,2.13-.16,3-.24,3.8-.81,8.44-1.07,16.81.7,25.25,2.52,12,9,20.62,20.24,25.65.66.3,1.33.59,2,.92a7.22,7.22,0,0,1,.94.83,12.81,12.81,0,0,1-2.34,2.08c-9,4.71-17.75,9.9-25.37,16.75-6.75,6.06-12.45,12.88-15.51,21.56-2.37,6.69-3.58,13.43-1.48,20.56,2.46,8.34,8,13.06,16.24,14.73s16.41.19,24.21-2.8c10.78-4.13,20-10.72,28.31-18.64A111.86,111.86,0,0,0,261.81,285q9-16.17,17.25-32.72c1.73-3.44,4-5.12,7.67-5.56,14.66-1.73,29.33-3.49,44.13-3A156.42,156.42,0,0,1,363.17,248c1.86.46,3.68,1,5.75,1.63C375.49,251.53,381.42,243.3,370.83,240.76ZM169.47,61.3c-3.62,4.4-4.85,5.21-11.85,7.34C163.44,62.43,164.72,61.68,169.47,61.3Zm93.66,192.82c-6,13.46-12.51,26.66-20.64,39-5.74,8.7-12.29,16.72-20.55,23.23a49.68,49.68,0,0,1-21.46,10c-4.1.8-8.13.82-12-1-5.32-2.48-8.17-6.53-8.39-12.44-.3-8.12,2.65-15.1,7.36-21.47a71,71,0,0,1,19.86-17.79c9.23-5.77,18.85-10.76,29.34-14,7.14-2.19,14.17-4.77,21.28-7.06a44,44,0,0,1,5.82-1,16.81,16.81,0,0,1-.62,2.57Z" transform="translate(0 0.08)" fill="#feb904"/></svg>